HIERARCHY
ROOT Hips
{
    OFFSET   0.000000   0.000000   0.000000
    CHANNELS 6 Xposition Yposition Zposition Zrotation Xrotation Yrotation
    JOINT Chest
    {
        OFFSET   0.000000   8.007230   0.000000
        CHANNELS 3 Zrotation Xrotation Yrotation
        JOINT Chest2
        {
            OFFSET   0.000000  22.077100   0.000000
            CHANNELS 3 Zrotation Xrotation Yrotation
            JOINT Neck
            {
                OFFSET   0.000000  23.254800   0.000000
                CHANNELS 3 Zrotation Xrotation Yrotation
                JOINT Head
                {
                    OFFSET   0.000010  14.370000   1.956600
                    CHANNELS 3 Zrotation Xrotation Yrotation
                    End Site
                    {
                        OFFSET   0.000000  19.566000   0.000000
                    }
                }
            }
            JOINT LeftCollar
            {
                OFFSET   3.911900  19.017000  -0.467062
                CHANNELS 3 Zrotation Xrotation Yrotation
                JOINT LeftShoulder
                {
                    OFFSET  10.383700   0.000000   0.000000
                    CHANNELS 3 Zrotation Xrotation Yrotation
                    JOINT LeftElbow
                    {
                        OFFSET  26.662100   0.001193   0.000835
                        CHANNELS 3 Zrotation Xrotation Yrotation
                        JOINT LeftWrist
                        {
                            OFFSET  28.869000  -0.000058  -0.000075
                            CHANNELS 3 Zrotation Xrotation Yrotation
                            JOINT LeftFinger0
                            {
                                OFFSET   2.044660  -2.323460   3.252850
                                CHANNELS 3 Zrotation Xrotation Yrotation
                                JOINT LeftFinger01
                                {
                                    OFFSET   3.088130   0.000000   0.000000
                                    CHANNELS 3 Zrotation Xrotation Yrotation
                                    JOINT LeftFinger02
                                    {
                                        OFFSET   2.639450   0.000000   0.000000
                                        CHANNELS 3 Zrotation Xrotation Yrotation
                                        End Site
                                        {
                                            OFFSET   2.582190   0.000000   0.000000
                                        }
                                    }
                                }
                            }
                            JOINT LeftFinger1
                            {
                                OFFSET   8.364480   0.000000   3.252850
                                CHANNELS 3 Zrotation Xrotation Yrotation
                                JOINT LeftFinger11
                                {
                                    OFFSET   4.646920   0.000000   0.000000
                                    CHANNELS 3 Zrotation Xrotation Yrotation
                                    JOINT LeftFinger12
                                    {
                                        OFFSET   2.323460   0.000000   0.000000
                                        CHANNELS 3 Zrotation Xrotation Yrotation
                                        End Site
                                        {
                                            OFFSET   2.273050   0.000000   0.000000
                                        }
                                    }
                                }
                            }
                            JOINT LeftFinger2
                            {
                                OFFSET   8.364490   0.000016   1.078090
                                CHANNELS 3 Zrotation Xrotation Yrotation
                                JOINT LeftFinger21
                                {
                                    OFFSET   5.111620   0.000000   0.000000
                                    CHANNELS 3 Zrotation Xrotation Yrotation
                                    JOINT LeftFinger22
                                    {
                                        OFFSET   2.788150   0.000012   0.000000
                                        CHANNELS 3 Zrotation Xrotation Yrotation
                                        End Site
                                        {
                                            OFFSET   2.727660   0.000000   0.000000
                                        }
                                    }
                                }
                            }
                            JOINT LeftFinger3
                            {
                                OFFSET   7.899780   0.000014  -1.078090
                                CHANNELS 3 Zrotation Xrotation Yrotation
                                JOINT LeftFinger31
                                {
                                    OFFSET   4.646930   0.000000   0.000000
                                    CHANNELS 3 Zrotation Xrotation Yrotation
                                    JOINT LeftFinger32
                                    {
                                        OFFSET   2.323470   0.000000   0.000000
                                        CHANNELS 3 Zrotation Xrotation Yrotation
                                        End Site
                                        {
                                            OFFSET   2.273050   0.000000   0.000000
                                        }
                                    }
                                }
                            }
                            JOINT LeftFinger4
                            {
                                OFFSET   7.435090   0.000000  -3.252850
                                CHANNELS 3 Zrotation Xrotation Yrotation
                                JOINT LeftFinger41
                                {
                                    OFFSET   3.717550   0.000000   0.000000
                                    CHANNELS 3 Zrotation Xrotation Yrotation
                                    JOINT LeftFinger42
                                    {
                                        OFFSET   1.858770   0.000000   0.000000
                                        CHANNELS 3 Zrotation Xrotation Yrotation
                                        End Site
                                        {
                                            OFFSET   1.818440   0.000000   0.000000
                                        }
                                    }
                                }
                            }
                        }
                    }
                }
            }
            JOINT RightCollar
            {
                OFFSET  -3.911900  19.017000  -0.467063
                CHANNELS 3 Zrotation Xrotation Yrotation
                JOINT RightShoulder
                {
                    OFFSET -10.383700   0.000023   0.000000
                    CHANNELS 3 Zrotation Xrotation Yrotation
                    JOINT RightElbow
                    {
                        OFFSET -26.662100   0.001246   0.001011
                        CHANNELS 3 Zrotation Xrotation Yrotation
                        JOINT RightWrist
                        {
                            OFFSET -28.869000  -0.000026  -0.000078
                            CHANNELS 3 Zrotation Xrotation Yrotation
                            JOINT RightFinger0
                            {
                                OFFSET  -2.044660  -2.323490   3.252850
                                CHANNELS 3 Zrotation Xrotation Yrotation
                                JOINT RightFinger01
                                {
                                    OFFSET  -3.088130   0.000000   0.000000
                                    CHANNELS 3 Zrotation Xrotation Yrotation
                                    JOINT RightFinger02
                                    {
                                        OFFSET  -2.639460   0.000000   0.000000
                                        CHANNELS 3 Zrotation Xrotation Yrotation
                                        End Site
                                        {
                                            OFFSET  -2.582190   0.000000   0.000000
                                        }
                                    }
                                }
                            }
                            JOINT RightFinger1
                            {
                                OFFSET  -8.364480   0.000000   3.252850
                                CHANNELS 3 Zrotation Xrotation Yrotation
                                JOINT RightFinger11
                                {
                                    OFFSET  -4.646920   0.000000   0.000000
                                    CHANNELS 3 Zrotation Xrotation Yrotation
                                    JOINT RightFinger12
                                    {
                                        OFFSET  -2.323470   0.000000   0.000000
                                        CHANNELS 3 Zrotation Xrotation Yrotation
                                        End Site
                                        {
                                            OFFSET  -2.273050   0.000000   0.000000
                                        }
                                    }
                                }
                            }
                            JOINT RightFinger2
                            {
                                OFFSET  -8.364480   0.000000   1.078090
                                CHANNELS 3 Zrotation Xrotation Yrotation
                                JOINT RightFinger21
                                {
                                    OFFSET  -5.111620   0.000000   0.000000
                                    CHANNELS 3 Zrotation Xrotation Yrotation
                                    JOINT RightFinger22
                                    {
                                        OFFSET  -2.788160   0.000000   0.000000
                                        CHANNELS 3 Zrotation Xrotation Yrotation
                                        End Site
                                        {
                                            OFFSET  -2.727660   0.000000   0.000000
                                        }
                                    }
                                }
                            }
                            JOINT RightFinger3
                            {
                                OFFSET  -7.899780   0.000000  -1.078090
                                CHANNELS 3 Zrotation Xrotation Yrotation
                                JOINT RightFinger31
                                {
                                    OFFSET  -4.646930   0.000000   0.000000
                                    CHANNELS 3 Zrotation Xrotation Yrotation
                                    JOINT RightFinger32
                                    {
                                        OFFSET  -2.323470   0.000000   0.000000
                                        CHANNELS 3 Zrotation Xrotation Yrotation
                                        End Site
                                        {
                                            OFFSET  -2.273050   0.000000   0.000000
                                        }
                                    }
                                }
                            }
                            JOINT RightFinger4
                            {
                                OFFSET  -7.435090   0.000000  -3.252850
                                CHANNELS 3 Zrotation Xrotation Yrotation
                                JOINT RightFinger41
                                {
                                    OFFSET  -3.717550   0.000000   0.000000
                                    CHANNELS 3 Zrotation Xrotation Yrotation
                                    JOINT RightFinger42
                                    {
                                        OFFSET  -1.858760   0.000000   0.000000
                                        CHANNELS 3 Zrotation Xrotation Yrotation
                                        End Site
                                        {
                                            OFFSET  -1.818440   0.000000   0.000000
                                        }
                                    }
                                }
                            }
                        }
                    }
                }
            }
        }
    }
    JOINT LeftHip
    {
        OFFSET   9.783010   0.000000   0.000000
        CHANNELS 3 Zrotation Xrotation Yrotation
        JOINT LeftKnee
        {
            OFFSET   0.000073 -41.789100   0.001749
            CHANNELS 3 Zrotation Xrotation Yrotation
            JOINT LeftAnkle
            {
                OFFSET   0.000111 -41.133200  -0.000179
                CHANNELS 3 Zrotation Xrotation Yrotation
                JOINT LeftToe
                {
                    OFFSET   0.000000  -6.358960  14.674500
                    CHANNELS 3 Zrotation Xrotation Yrotation
                    End Site
                    {
                        OFFSET   0.000000   0.000000   3.913200
                    }
                }
            }
        }
    }
    JOINT RightHip
    {
        OFFSET  -9.783010   0.000000   0.000000
        CHANNELS 3 Zrotation Xrotation Yrotation
        JOINT RightKnee
        {
            OFFSET   0.000424 -41.789200   0.005205
            CHANNELS 3 Zrotation Xrotation Yrotation
            JOINT RightAnkle
            {
                OFFSET   0.000000 -41.133200  -0.000155
                CHANNELS 3 Zrotation Xrotation Yrotation
                JOINT RightToe
                {
                    OFFSET   0.000000  -6.358960  14.674500
                    CHANNELS 3 Zrotation Xrotation Yrotation
                    End Site
                    {
                        OFFSET   0.000000   0.000000   3.913200
                    }
                }
            }
        }
    }
}
MOTION
Frames: 4
Frame Time:   0.016667
 -1.636600  89.516800   1.929620  -2.348220 -11.739000   0.160358   0.379547   8.028580  -1.050470   0.923222  16.048600  -2.187980   2.495900  -6.773280   0.294613   4.264760 -13.657000   8.353300  -7.098730  -7.685250  -2.250410 -52.830200  25.037000 -51.410600  13.014200 -23.832300 -97.591600   0.317954 -34.522600 -16.583500  37.666400  54.199200 -76.910300 -57.999600   0.001633   0.002576 -31.967700   0.000360   0.001257 -10.060500   1.592000  -8.833120  -8.328670   0.016422   0.005152  -5.830090   0.011132  -0.000647 -10.597200  -0.697997   3.760960 -10.619100  -0.003464  -0.003307  -7.072330  -0.001780  -0.000409 -61.690800  -5.967750   3.176670 -61.848100   0.005930  -0.029125 -46.388400   0.021566  -0.003920 -61.768400  -8.842840   4.645000 -93.193600   0.037532  -0.024903 -62.067000   0.026568   0.012579  11.251400  -6.012690  12.113600  70.601000  13.922800  -6.057660  -3.277820  -3.906080  17.451300 -14.048800  -6.163510   3.327490 -34.270000  26.861900  61.138300  34.277700  -0.002094   0.001513  12.138900  -0.004471   0.004256  28.732700   6.627740  11.891900  24.074300  -0.001211   0.002492  16.852000   0.003632   0.003809  28.709100   2.278660   4.150730  42.965400  -0.001788   0.000305  28.615000   0.003903   0.001825  28.663600   1.791670   3.273620  39.362100  -0.003647   0.002197  26.215200   0.003557  -0.000572  37.185900  -0.298928  -0.394021  55.780400  -0.003883  -0.000510  37.149800   0.006328   0.003619   2.397480  14.341300   4.936020   0.987885   0.080075   2.005570  -1.197890  -3.671160   1.488260  -0.000000   0.000000  -0.000000   3.396160  14.332100  -1.510930   0.293574   1.163420  -6.516580  -1.855670  -4.725690   0.423489   0.000000   0.000000   0.000000
 -1.591760  89.517500   1.945120  -2.377770 -11.734400   0.104853   0.376968   8.022730  -1.100180   0.925059  16.036500  -2.288440   2.450360  -6.765930   0.288865   4.185130 -13.644400   8.411160  -7.044810  -7.688130  -1.888790 -54.119100  24.527100 -49.491700  13.333200 -23.431300 -96.751300  -0.008907 -35.266400 -16.983800  37.510100  53.546300 -77.996000 -56.779300   0.001629   0.002431 -31.155000   0.000338   0.001226 -10.640300   1.567120  -8.153850  -8.795210   0.020438   0.005202  -6.156670   0.011200  -0.000646 -11.148800  -0.513032   2.782960 -11.152400  -0.015419  -0.003387  -7.427530  -0.009506  -0.000455 -60.332800  -6.046530   3.403620 -60.513400   0.005931  -0.032754 -45.385100   0.023901  -0.004683 -60.386800  -8.838470   4.966270 -91.158100   0.042328  -0.028209 -60.711300   0.029978   0.013295  11.269100  -6.010700  12.235500  70.565100  13.898400  -6.042500  -3.313170  -3.888550  17.459900 -14.045900  -6.169550   3.358660 -34.314800  26.906800  61.126300  34.251000  -0.002098   0.001518  12.125500  -0.004470   0.004257  28.729700   6.638310  11.908700  24.073200  -0.001210   0.002498  16.851300   0.003630   0.003808  28.708100   2.286730   4.165460  42.965800  -0.001790   0.000308  28.615200   0.003903   0.001828  28.664300   1.802490   3.293160  39.374300  -0.003648   0.002201  26.223300   0.003558  -0.000574  37.197200  -0.301870  -0.397721  55.797400  -0.003883  -0.000515  37.161100   0.006329   0.003618   2.396260  14.360400   4.938940   0.966246   0.081081   2.022680  -1.168070  -3.694480   1.523150   0.000000   0.000000   0.000000   3.385580  14.327200  -1.499010   0.281786   1.170970  -6.497810  -1.835770  -4.725690   0.439435  -0.000000   0.000000   0.000000
 -1.544100  89.518200   1.963470  -2.408700 -11.730300   0.045075   0.374619   8.015490  -1.130880   0.924557  16.021700  -2.350310   2.409180  -6.767840   0.284024   4.113130 -13.650000   8.405560  -6.994530  -7.666590  -1.583680 -55.449800  23.975800 -47.567000  13.674500 -22.865500 -96.056400   0.289912 -35.939100 -16.710100  37.648000  53.166900 -78.105700 -56.097700   0.001634   0.002399 -30.701100   0.000317   0.001199 -11.400500   1.577390  -7.658530  -9.413660   0.017706   0.005256  -6.589590   0.011267  -0.000642 -11.423300  -0.519285   2.798050 -11.424200  -0.017003  -0.003466  -7.608560  -0.010701  -0.000502 -58.783500  -6.105140   3.675080 -59.178000   0.005929  -0.029613 -44.335600   0.018614  -0.005136 -58.907000  -8.989520   5.388520 -88.994200   0.033201  -0.023009 -59.270200   0.024294   0.011589  11.286200  -6.005660  12.316700  70.537100  13.864000  -6.046790  -3.372520  -3.848630  17.506900 -14.055400  -6.221230   3.384570 -34.348300  26.960200  61.134600  34.245100  -0.002099   0.001509  12.122500  -0.004467   0.004255  28.744000   6.644330  11.908200  24.084700  -0.001211   0.002492  16.859300   0.003630   0.003809  28.708300   2.286320   4.164700  42.989700  -0.001790   0.000302  28.631100   0.003901   0.001828  28.665700   1.804210   3.295820  39.410900  -0.003645   0.002200  26.247700   0.003555  -0.000571  37.221300  -0.308136  -0.405606  55.833600  -0.003882  -0.000512  37.185200   0.006329   0.003617   2.395330  14.385100   4.939380   0.946003   0.073362   2.043610  -1.137080  -3.715040   1.561720  -0.000000   0.000000   0.000000   3.366090  14.323300  -1.481050   0.277874   1.176750  -6.490030  -1.809330  -4.725650   0.469122  -0.000000   0.000000  -0.000000
 -1.496210  89.519300   1.982980  -2.442320 -11.726800  -0.020247   0.371112   8.007680  -1.151070   0.920161  16.005900  -2.390660   2.375420  -6.773660   0.280303   4.057600 -13.664400   8.382690  -6.947540  -7.629420  -1.302310 -56.760400  23.403900 -45.628200  14.037400 -22.268700 -95.323400   1.081010 -36.667500 -15.819000  37.746200  52.964600 -77.793100 -55.618500   0.001638   0.002390 -30.382000   0.000293   0.001175 -12.236600   1.616500  -7.291080 -10.095900   0.013058   0.005311  -7.067170   0.011333  -0.000638 -11.533900  -0.563054   2.903660 -11.535000  -0.017229  -0.003545  -7.682330  -0.010871  -0.000550 -57.469500  -6.170450   3.909770 -57.824700   0.005915  -0.022732 -43.332700   0.013327  -0.006352 -57.531500  -9.260030   5.832800 -87.006300   0.024075  -0.017808 -57.946200   0.018611   0.009883  11.301800  -5.995760  12.380100  70.513500  13.830500  -6.054220  -3.437860  -3.798770  17.577700 -14.063000  -6.293930   3.406820 -34.371800  27.016200  61.149800  34.244300  -0.002099   0.001500  12.122100  -0.004465   0.004252  28.769300   6.646450  11.903800  24.106100  -0.001211   0.002485  16.874200   0.003631   0.003811  28.708900   2.283450   4.159420  43.033800  -0.001789   0.000296  28.660500   0.003899   0.001828  28.666900   1.804450   3.296200  39.458800  -0.003643   0.002199  26.279600   0.003553  -0.000568  37.251300  -0.315930  -0.415408  55.878700  -0.003882  -0.000509  37.215200   0.006330   0.003616   2.394370  14.410000   4.939840   0.927000   0.065643   2.068210  -1.105190  -3.738670   1.602200  -0.000000   0.000000  -0.000000   3.346610  14.319900  -1.462500   0.274824   1.183260  -6.482210  -1.780510  -4.725530   0.504823  -0.000000   0.000000   0.000000
